<svg width="22" height="22" viewBox="0 0 22 22" fill="none" xmlns="http://www.w3.org/2000/svg">
<path d="M9.35387 1.47355L10.4439 0.355164C10.9055 -0.118388 11.6518 -0.118388 12.1085 0.355164L21.6538 10.1436C22.1154 10.6171 22.1154 11.3829 21.6538 11.8514L12.1085 21.6448C11.6469 22.1184 10.9006 22.1184 10.4439 21.6448L9.35387 20.5264C8.8874 20.0479 8.89722 19.267 9.37351 18.7985L15.2903 13.0151H1.17844C0.525388 13.0151 0 12.4761 0 11.806V10.194C0 9.52393 0.525388 8.98489 1.17844 8.98489H15.2903L9.37351 3.20151C8.89231 2.733 8.88249 1.95214 9.35387 1.47355Z" fill="#D93A26"/>
</svg>
